<svg xmlns="http://www.w3.org/2000/svg" viewBox="0 0 127.01 127.01"><defs><style>.cls-1{fill:#1d1d1b;}.cls-2{fill:#048ca5;}</style></defs><g id="Lag_3" data-name="Lag 3"><path class="cls-1" d="M178,301.6c.1-.51.18-1,.26-1.53a.46.46,0,0,1,.44-.09l-.13.48.31.39-.16.13Z" transform="translate(-56.17 -227.05)"/><path class="cls-1" d="M164.17,269.7a4.51,4.51,0,0,1,.18.82c-.14-.23-.28-.46-.43-.68a.76.76,0,0,0,0-.15Z" transform="translate(-56.17 -227.05)"/><path class="cls-1" d="M159.72,273c-.79-.47-4.52-4.67-5.81-6.16a11,11,0,0,0-.72-1.23l-.15-.24c-.22-.34-.47-.73-.75-1.14l1.38,1.62,4.2,4.19.57.58a7.68,7.68,0,0,0,1.8,1.53,2.8,2.8,0,0,0,2.59.46c.66-.37,1-1.33,1.09-2.73.15.22.29.45.43.68a2.87,2.87,0,0,1-1,2.92,2.42,2.42,0,0,1-1.21.3A3.86,3.86,0,0,1,159.72,273Z" transform="translate(-56.17 -227.05)"/><path class="cls-1" d="M149.83,239.48l.58-.82a54.84,54.84,0,0,1,7.8,6.85A60,60,0,0,0,150,239.6Z" transform="translate(-56.17 -227.05)"/><path class="cls-1" d="M153.91,266.8c-.09-.12-.18-.22-.25-.3-1.51-1.8-3.81-4.89-3.81-4.89a29.25,29.25,0,0,1,2.44,2.58c.28.41.53.8.75,1.14l.15.24A11,11,0,0,1,153.91,266.8Z" transform="translate(-56.17 -227.05)"/><path class="cls-1" d="M149.85,261.61l-.62-.39S149.27,261.09,149.85,261.61Z" transform="translate(-56.17 -227.05)"/><polygon class="cls-1" points="86.82 51.68 86.82 56.13 79.78 56.13 79.78 75.14 74.48 75.14 74.48 56.13 67.44 56.13 67.44 51.68 86.82 51.68"/><path class="cls-1" d="M154.27,269.4a2.8,2.8,0,0,1-1.37,1.83,2.63,2.63,0,0,1-1.19.27,4.2,4.2,0,0,1-1.37-.25.74.74,0,0,1-.3-.17,11.28,11.28,0,0,1-2.39-2l-5-5.88-.88-1a3.66,3.66,0,0,0-.65-1.15c-.74-.89-1.5-1.48-2-2.1s-.83-1-1.25-1.48l10.49,10.92a11.09,11.09,0,0,0,2.12,1.76l.15.09a2.23,2.23,0,0,0,1.79,0,1.92,1.92,0,0,0,.87-1.21c.29-1-.32-2-1-3l-.16-.24c-2.94-4.71-12.33-16.87-17.62-20.16l.45.08c5.21,3.23,13.72,13.24,17.27,18.41a29.25,29.25,0,0,0-2.44-2.58c-.58-.52-.62-.39-.62-.39l.62.39s2.3,3.09,3.81,4.89c.07.08.16.18.25.3A3.44,3.44,0,0,1,154.27,269.4Z" transform="translate(-56.17 -227.05)"/><path class="cls-1" d="M139.14,259c.52.62,1.28,1.21,2,2.1a3.66,3.66,0,0,1,.65,1.15l-4.2-4.71.15-.15.13.13C138.31,258,138.71,258.48,139.14,259Z" transform="translate(-56.17 -227.05)"/><path class="cls-1" d="M135.89,264.57c-8.36-5.81-15.61-17.69-15.68-17.81l.24-.09c.07.11,7.81,11.38,16,17.08,1.86,1.29,3.4,1.58,4.13.78a2.25,2.25,0,0,0-.2-2.79c-.74-.89-5.76-7.32-14-16.4l.33-.05c6.8,7.51,9.15,9.94,11.15,12.23l-.13-.13-.15.15,4.2,4.71a3,3,0,0,1-.48,2.95,2.49,2.49,0,0,1-1.88.77A6.47,6.47,0,0,1,135.89,264.57Z" transform="translate(-56.17 -227.05)"/><polygon class="cls-1" points="56.46 70.69 56.46 75.14 40.2 75.14 40.2 70.69 45.68 70.69 45.68 56.13 40.2 56.13 40.2 51.68 56.46 51.68 56.46 56.13 50.98 56.13 50.98 70.69 56.46 70.69"/><path class="cls-1" d="M98.84,319.3c.74.89,5.76,7.33,14,16.41l-.33,0c-6.84-7.54-9.17-10-11.17-12.26l.15.16.15-.14-4.21-4.74a3,3,0,0,1,.49-2.93,2.49,2.49,0,0,1,1.88-.77,6.47,6.47,0,0,1,3.56,1.4c8.37,5.82,15.61,17.7,15.68,17.81l-.24.09c-.07-.11-7.81-11.38-16-17.07-1.85-1.29-3.4-1.58-4.13-.78A2.24,2.24,0,0,0,98.84,319.3Z" transform="translate(-56.17 -227.05)"/><path class="cls-1" d="M100.09,322.05c-.52-.63-1.28-1.22-2-2.11a3.7,3.7,0,0,1-.66-1.17l4.21,4.74-.15.14-.15-.16Z" transform="translate(-56.17 -227.05)"/><path class="cls-1" d="M89.92,319.85l.61.38S90.49,320.36,89.92,319.85Z" transform="translate(-56.17 -227.05)"/><path class="cls-1" d="M104.21,335.27c-5.56-3.45-14.91-14.65-17.93-19.4a43.59,43.59,0,0,0,3.61,4s0,0,0,0h0c.57.51.61.38.61.38l0,0c4.13,5.52,10.22,12.72,14.11,15.13Z" transform="translate(-56.17 -227.05)"/><path class="cls-1" d="M89.4,341.57l-.58.81a55,55,0,0,1-7.92-7,58.75,58.75,0,0,0,8.26,6Z" transform="translate(-56.17 -227.05)"/><path class="cls-1" d="M86,315.48a9.4,9.4,0,0,1-.9-1.64c.43.49.77.88,1,1.11,1.43,1.71,3.58,4.59,3.79,4.88a43.59,43.59,0,0,1-3.61-4l-.09-.15Z" transform="translate(-56.17 -227.05)"/><path class="cls-1" d="M88.58,310.75a2.26,2.26,0,0,0-1.79,0,1.87,1.87,0,0,0-.87,1.21c-.29,1,.32,2,1,3l.16.25c.78,1.25,2,3,3.51,5l0,0-.61-.38h0s0,0,0,0c-.21-.29-2.36-3.17-3.79-4.88-.19-.23-.53-.62-1-1.11a3.17,3.17,0,0,1-.18-2.2,2.81,2.81,0,0,1,1.37-1.82,2.52,2.52,0,0,1,1.19-.28,4,4,0,0,1,1.37.26.72.72,0,0,1,.3.16,11.59,11.59,0,0,1,2.39,2l5,5.88.86,1a3.7,3.7,0,0,0,.66,1.17c.74.89,1.5,1.48,2,2.11l1.23,1.44L90.85,312.61a10.77,10.77,0,0,0-2.12-1.77Z" transform="translate(-56.17 -227.05)"/><path class="cls-2" d="M80.86,335.37a59.22,59.22,0,0,1-20.49-44.85,58.27,58.27,0,0,1,.8-9.68l0,0c3.71-3.22,22.78-19,34.28-14.17,12.11,5.11,27.39,10.43,31.46,6.8a2.43,2.43,0,0,0,1-2.24c-.37-2.3-4.7-4.17-9.72-6.33s-11-4.73-10.64-7.33,5.39-8.27,12.82-11l.06.16-.24.09c.07.12,7.32,12,15.68,17.81a6.47,6.47,0,0,0,3.56,1.4,2.49,2.49,0,0,0,1.88-.77,3,3,0,0,0,.48-2.95l.88,1,5,5.88a11.28,11.28,0,0,0,2.39,2,.74.74,0,0,0,.3.17,4.2,4.2,0,0,0,1.37.25,2.63,2.63,0,0,0,1.19-.27,2.8,2.8,0,0,0,1.37-1.83,3.44,3.44,0,0,0-.36-2.6c1.29,1.49,5,5.69,5.81,6.16a3.86,3.86,0,0,0,2.38.78,2.42,2.42,0,0,0,1.21-.3,2.87,2.87,0,0,0,1-2.92q1.18,1.88,2.37,3.93c1.47,2.61,3.37,3.12,4.66,2.72,1.79-.54,2.8-2.63,2.6-5.32-.31-4.1-6.43-16.54-15.77-26.34a59.18,59.18,0,0,1,20.77,45v.06a58.36,58.36,0,0,1-.76,9.47,2.31,2.31,0,0,0-.19.16c-3.71,3.22-22.78,19-34.28,14.18-12.11-5.11-27.39-10.44-31.46-6.81a2.44,2.44,0,0,0-1,2.24c.37,2.3,4.7,4.17,9.72,6.33s11,4.74,10.64,7.34-5.4,8.28-12.82,11l-.06-.17.24-.09c-.07-.11-7.31-12-15.68-17.81a6.47,6.47,0,0,0-3.56-1.4,2.49,2.49,0,0,0-1.88.77,3,3,0,0,0-.49,2.93l-.86-1-5-5.88a11.59,11.59,0,0,0-2.39-2,.72.72,0,0,0-.3-.16,4,4,0,0,0-1.37-.26,2.52,2.52,0,0,0-1.19.28A2.81,2.81,0,0,0,85,311.64a3.17,3.17,0,0,0,.18,2.2,57.78,57.78,0,0,0-5.1-5.35,3.91,3.91,0,0,0-2.38-.78,2.42,2.42,0,0,0-1.21.3c-.69.39-1.41,1.72-.91,3.56-1-1.57-2-3.22-3-5-1.47-2.6-3.37-3.11-4.66-2.72-1.78.54-2.8,2.63-2.6,5.32C65.56,313.26,71.61,325.6,80.86,335.37ZM143,283.18v-4.45H123.61v4.45h7v19H136v-19Zm-30.36,19v-4.45h-5.48V283.18h5.48v-4.45H96.37v4.45h5.48v14.56H96.37v4.45Z" transform="translate(-56.17 -227.05)"/><path class="cls-1" d="M81.89,311.45l-.57-.58a7.38,7.38,0,0,0-1.8-1.52,2.79,2.79,0,0,0-2.58-.47c-.69.38-1.08,1.4-1.11,2.88h-.17l-.12-.19c-.5-1.84.22-3.17.91-3.56a2.42,2.42,0,0,1,1.21-.3,3.91,3.91,0,0,1,2.38.78,57.78,57.78,0,0,1,5.1,5.35,9.4,9.4,0,0,0,.9,1.64l.15.24.09.15-.19-.23Z" transform="translate(-56.17 -227.05)"/><path class="cls-1" d="M75.54,311.57l.12.19h-.07A1.33,1.33,0,0,1,75.54,311.57Z" transform="translate(-56.17 -227.05)"/><path class="cls-1" d="M115.06,336.66c-10.8,2.15-27.1-1.23-43.42-29.58-1-1.74-2.32-2.6-3.5-2.25s-2.08,1.78-1.89,4.29c.37,4.83,9.88,22.86,22.91,32.27a58.75,58.75,0,0,1-8.26-6l0,0c-9.25-9.77-15.3-22.11-15.61-26.18-.2-2.69.82-4.78,2.6-5.32,1.29-.39,3.19.12,4.66,2.72,1,1.76,2,3.41,3,5a1.33,1.33,0,0,0,0,.19h.07c10.14,15.68,20.08,22,28.48,23.82a25.94,25.94,0,0,0,8.72.42c.69-.08,1.36-.19,2-.32a25,25,0,0,0,4-1.14c7.42-2.75,12.48-8.37,12.82-11s-5.49-5.12-10.64-7.34-9.35-4-9.72-6.33a2.44,2.44,0,0,1,1-2.24c4.07-3.63,19.35,1.7,31.46,6.81,11.5,4.86,30.57-11,34.28-14.18a2.31,2.31,0,0,1,.19-.16c-.08.51-.16,1-.26,1.53-6.08,5.18-23.33,18.49-34.6,13.73-16.5-7-27.58-9.51-30.41-7a1.51,1.51,0,0,0-.67,1.33c.29,1.76,4.79,3.7,9.14,5.57,5.73,2.48,11.67,5,11.23,8.39S125.19,334.64,115.06,336.66Z" transform="translate(-56.17 -227.05)"/><path class="cls-1" d="M95.87,265.71c16.5,7,27.58,9.51,30.41,7a1.53,1.53,0,0,0,.67-1.34c-.29-1.76-4.79-3.7-9.13-5.57-5.74-2.47-11.68-5-11.24-8.38s7.46-11,17.59-13c10.8-2.15,27.1,1.23,43.42,29.58,1,1.75,2.33,2.61,3.5,2.25s2.08-1.78,1.89-4.28c-.37-4.85-9.92-22.93-23-32.33a60,60,0,0,1,8.21,5.91c9.34,9.8,15.46,22.24,15.77,26.34.2,2.69-.81,4.78-2.6,5.32-1.29.4-3.19-.11-4.66-2.72q-1.18-2.06-2.37-3.93a4.51,4.51,0,0,0-.18-.82h-.24a.76.76,0,0,1,0,.15c-10.26-16.09-20.33-22.53-28.83-24.38a26.44,26.44,0,0,0-8.39-.46c-.8.09-1.58.21-2.33.36a25.11,25.11,0,0,0-4,1.15c-7.43,2.76-12.48,8.37-12.82,11s5.49,5.11,10.64,7.33,9.35,4,9.72,6.33a2.43,2.43,0,0,1-1,2.24c-4.07,3.63-19.35-1.69-31.46-6.8C84,261.77,64.91,277.59,61.2,280.81l0,0c.08-.52.17-1,.28-1.55C67.69,274,84.71,261,95.87,265.71Z" transform="translate(-56.17 -227.05)"/><path class="cls-1" d="M60.7,280.59l-.31-.4.16-.13.9-.77c-.11.51-.2,1-.28,1.55-.17.15-.29.25-.46.25l-.14,0Z" transform="translate(-56.17 -227.05)"/><path class="cls-1" d="M88.82,342.38l.58-.81-.24-.18a58.93,58.93,0,0,0,30.47,8.47h.05A59.35,59.35,0,0,0,178,301.6l.72-.62.16-.13-.31-.39.13-.48a.46.46,0,0,0-.44.09,58.36,58.36,0,0,0,.76-9.47v-.06a59.18,59.18,0,0,0-20.77-45,54.84,54.84,0,0,0-7.8-6.85l-.58.82.17.12a59,59,0,0,0-30.28-8.35h0a59.39,59.39,0,0,0-58.23,48l-.9.77-.16.13.31.4-.13.48.14,0c.17,0,.29-.1.46-.25a58.27,58.27,0,0,0-.8,9.68,59.22,59.22,0,0,0,20.49,44.85l0,0A55,55,0,0,0,88.82,342.38Zm30.9-115.33a63.51,63.51,0,0,1,0,127h-.05a63.51,63.51,0,0,1,.05-127Z" transform="translate(-56.17 -227.05)"/></g></svg>